<svg width={1000} height={1000} viewBox="0 0 1000 1000"
  xmlns="http://www.w3.org/2000/svg">
  <defs>
    <clipPath id="shape">
      <path fill="currentColor" d="M727,553Q646,606,639,756Q632,906,497,915.5Q362,925,343,776.5Q324,628,245,564Q166,500,175.5,385.5Q185,271,275,178Q365,85,459,211.5Q553,338,637.5,338Q722,338,765,419Q808,500,727,553Z" />
    </clipPath>
  </defs>
  <g clipPath="url(#shape)">
    <path fill="#444cf7" d="M727,553Q646,606,639,756Q632,906,497,915.5Q362,925,343,776.5Q324,628,245,564Q166,500,175.5,385.5Q185,271,275,178Q365,85,459,211.5Q553,338,637.5,338Q722,338,765,419Q808,500,727,553Z" />
  </g>
</svg>